<?xml version="1.0" standalone="no"?>
<!DOCTYPE svg PUBLIC "-//W3C//DTD SVG 20010904//EN"
 "http://www.w3.org/TR/2001/REC-SVG-20010904/DTD/svg10.dtd">
<svg version="1.0" xmlns="http://www.w3.org/2000/svg"
 width="16.000000pt" height="16.000000pt" viewBox="0 0 16.000000 16.000000"
 preserveAspectRatio="xMidYMid meet">
<metadata>
Created by potrace 1.11, written by Peter Selinger 2001-2013
</metadata>
<g transform="translate(0.000000,16.000000) scale(0.003125,-0.003125)"
fill="#000000" stroke="none">
<path d="M662 4319 c-44 -13 -235 -197 -262 -254 -26 -53 -28 -127 -5 -181 11
-28 161 -184 537 -561 449 -450 520 -524 509 -537 -8 -9 -239 -242 -516 -518
-333 -334 -510 -518 -524 -546 -28 -55 -29 -126 -3 -183 24 -54 204 -232 255
-254 48 -20 101 -21 157 -4 40 12 121 89 733 701 506 506 693 699 707 730 25
54 25 121 1 174 -26 57 -1368 1399 -1425 1425 -44 20 -111 23 -164 8z"/>
<path d="M1778 1653 c-53 -15 -105 -63 -130 -120 -16 -36 -19 -65 -17 -180 2
-183 24 -232 125 -282 38 -20 69 -20 1433 -21 1020 0 1403 3 1432 11 44 14
100 63 126 111 14 26 18 61 20 169 1 79 -2 151 -9 172 -15 49 -61 103 -111
130 l-42 22 -1392 0 c-1091 1 -1401 -2 -1435 -12z"/>
</g>
</svg>
